HIERARCHY
ROOT Hips
{
  OFFSET 5.72205e-005 65.662 3.42586
  CHANNELS 6 Xposition Yposition Zposition Zrotation Xrotation Yrotation
  JOINT Chest
  {
    OFFSET 0 8.7983 -4.7612
    CHANNELS 6 Xposition Yposition Zposition Zrotation Xrotation Yrotation
    JOINT Chest2
    {
      OFFSET 0 8.0291 0.4195
      CHANNELS 6 Xposition Yposition Zposition Zrotation Xrotation Yrotation
      JOINT Chest3
      {
        OFFSET 0 9.9351 -2.2114
        CHANNELS 6 Xposition Yposition Zposition Zrotation Xrotation Yrotation
        JOINT Neck
        {
          OFFSET 0 22.3885 -0.4656
          CHANNELS 6 Xposition Yposition Zposition Zrotation Xrotation Yrotation
          JOINT Head
          {
            OFFSET -0.0001 12.643 3.4389
            CHANNELS 6 Xposition Yposition Zposition Zrotation Xrotation Yrotation
            End Site
            {
              OFFSET 0.0001 17.6655 0.5274
            }
          }
        }
        JOINT LeftCollar
        {
          OFFSET 2.2603 21.606 7.4023
          CHANNELS 6 Xposition Yposition Zposition Zrotation Xrotation Yrotation
          JOINT LeftShoulder
          {
            OFFSET 13.5163 -1.1332 -5.0146
            CHANNELS 6 Xposition Yposition Zposition Zrotation Xrotation Yrotation
            JOINT LeftElbow
            {
              OFFSET -0.0995 -28.05 -0.2431
              CHANNELS 6 Xposition Yposition Zposition Zrotation Xrotation Yrotation
              JOINT LeftWrist
              {
                OFFSET 0.0679 -23.3996 -0.1402
                CHANNELS 6 Xposition Yposition Zposition Zrotation Xrotation Yrotation
                JOINT LeftFinger1
                {
                  OFFSET 0.7932 -9.069 2.5189
                  CHANNELS 6 Xposition Yposition Zposition Zrotation Xrotation Yrotation
                  JOINT LeftFinger11
                  {
                    OFFSET -0.8272 -3.3923 0.5977
                    CHANNELS 6 Xposition Yposition Zposition Zrotation Xrotation Yrotation
                    JOINT LeftFinger12
                    {
                      OFFSET -0.5649 -2.3158 0.4082
                      CHANNELS 6 Xposition Yposition Zposition Zrotation Xrotation Yrotation
                      End Site
                      {
                        OFFSET -0.4919 -1.6479 0.2673
                      }
                    }
                  }
                }
                JOINT LeftFinger2
                {
                  OFFSET 0.9159 -9.2044 0.2193
                  CHANNELS 6 Xposition Yposition Zposition Zrotation Xrotation Yrotation
                  JOINT LeftFinger21
                  {
                    OFFSET 0.0117 -4.1944 -0.0248
                    CHANNELS 6 Xposition Yposition Zposition Zrotation Xrotation Yrotation
                    JOINT LeftFinger22
                    {
                      OFFSET 0.0071 -2.3249 -0.0142
                      CHANNELS 6 Xposition Yposition Zposition Zrotation Xrotation Yrotation
                      End Site
                      {
                        OFFSET -0.1475 -2.0882 0.0028
                      }
                    }
                  }
                }
                JOINT LeftFinger3
                {
                  OFFSET 0.6113 -8.7231 -2.0637
                  CHANNELS 6 Xposition Yposition Zposition Zrotation Xrotation Yrotation
                  JOINT LeftFinger31
                  {
                    OFFSET -0.1927 -3.8059 -0.2383
                    CHANNELS 6 Xposition Yposition Zposition Zrotation Xrotation Yrotation
                    JOINT LeftFinger32
                    {
                      OFFSET -0.1091 -2.1688 -0.1362
                      CHANNELS 6 Xposition Yposition Zposition Zrotation Xrotation Yrotation
                      End Site
                      {
                        OFFSET -0.2358 -1.9176 -0.0906
                      }
                    }
                  }
                }
                JOINT LeftFinger4
                {
                  OFFSET -0.6151 -8.0947 -3.5641
                  CHANNELS 6 Xposition Yposition Zposition Zrotation Xrotation Yrotation
                  JOINT LeftFinger41
                  {
                    OFFSET -0.4882 -2.341 -0.6462
                    CHANNELS 6 Xposition Yposition Zposition Zrotation Xrotation Yrotation
                    JOINT LeftFinger42
                    {
                      OFFSET -0.3575 -1.7167 -0.4742
                      CHANNELS 6 Xposition Yposition Zposition Zrotation Xrotation Yrotation
                      End Site
                      {
                        OFFSET -0.4187 -1.5237 -0.3496
                      }
                    }
                  }
                }
                JOINT LeftFinger0
                {
                  OFFSET -1.42 -1.8761 1.4223
                  CHANNELS 6 Xposition Yposition Zposition Zrotation Xrotation Yrotation
                  JOINT LeftFinger01
                  {
                    OFFSET -1.1471 -3.4929 2.6334
                    CHANNELS 6 Xposition Yposition Zposition Zrotation Xrotation Yrotation
                    JOINT LeftFinger02
                    {
                      OFFSET -0.823 -2.3 1.6571
                      CHANNELS 6 Xposition Yposition Zposition Zrotation Xrotation Yrotation
                      End Site
                      {
                        OFFSET -0.5822 -1.6914 1.1582
                      }
                    }
                  }
                }
              }
            }
          }
        }
        JOINT RightCollar
        {
          OFFSET -2.2603 21.606 7.4023
          CHANNELS 6 Xposition Yposition Zposition Zrotation Xrotation Yrotation
          JOINT RightShoulder
          {
            OFFSET -13.5187 -1.1334 -5.0155
            CHANNELS 6 Xposition Yposition Zposition Zrotation Xrotation Yrotation
            JOINT RightElbow
            {
              OFFSET 0.0994 -28.0499 -0.2431
              CHANNELS 6 Xposition Yposition Zposition Zrotation Xrotation Yrotation
              JOINT RightWrist
              {
                OFFSET -0.0679 -23.3996 -0.1402
                CHANNELS 6 Xposition Yposition Zposition Zrotation Xrotation Yrotation
                JOINT RightFinger1
                {
                  OFFSET -0.7932 -9.0691 2.5189
                  CHANNELS 6 Xposition Yposition Zposition Zrotation Xrotation Yrotation
                  JOINT RightFinger11
                  {
                    OFFSET 0.8272 -3.3923 0.5977
                    CHANNELS 6 Xposition Yposition Zposition Zrotation Xrotation Yrotation
                    JOINT RightFinger12
                    {
                      OFFSET 0.565 -2.3158 0.4082
                      CHANNELS 6 Xposition Yposition Zposition Zrotation Xrotation Yrotation
                      End Site
                      {
                        OFFSET 0.4919 -1.6479 0.2673
                      }
                    }
                  }
                }
                JOINT RightFinger2
                {
                  OFFSET -0.916 -9.2044 0.2193
                  CHANNELS 6 Xposition Yposition Zposition Zrotation Xrotation Yrotation
                  JOINT RightFinger21
                  {
                    OFFSET -0.0117 -4.1944 -0.0248
                    CHANNELS 6 Xposition Yposition Zposition Zrotation Xrotation Yrotation
                    JOINT RightFinger22
                    {
                      OFFSET -0.0071 -2.3249 -0.0142
                      CHANNELS 6 Xposition Yposition Zposition Zrotation Xrotation Yrotation
                      End Site
                      {
                        OFFSET 0.1475 -2.0882 0.0028
                      }
                    }
                  }
                }
                JOINT RightFinger3
                {
                  OFFSET -0.6113 -8.7231 -2.0637
                  CHANNELS 6 Xposition Yposition Zposition Zrotation Xrotation Yrotation
                  JOINT RightFinger31
                  {
                    OFFSET 0.1927 -3.8059 -0.2383
                    CHANNELS 6 Xposition Yposition Zposition Zrotation Xrotation Yrotation
                    JOINT RightFinger32
                    {
                      OFFSET 0.1091 -2.1688 -0.1362
                      CHANNELS 6 Xposition Yposition Zposition Zrotation Xrotation Yrotation
                      End Site
                      {
                        OFFSET 0.2358 -1.9176 -0.0906
                      }
                    }
                  }
                }
                JOINT RightFinger4
                {
                  OFFSET 0.6151 -8.0947 -3.564
                  CHANNELS 6 Xposition Yposition Zposition Zrotation Xrotation Yrotation
                  JOINT RightFinger41
                  {
                    OFFSET 0.4882 -2.341 -0.6462
                    CHANNELS 6 Xposition Yposition Zposition Zrotation Xrotation Yrotation
                    JOINT RightFinger42
                    {
                      OFFSET 0.3574 -1.7166 -0.4742
                      CHANNELS 6 Xposition Yposition Zposition Zrotation Xrotation Yrotation
                      End Site
                      {
                        OFFSET 0.4187 -1.5237 -0.3496
                      }
                    }
                  }
                }
                JOINT RightFinger0
                {
                  OFFSET 1.4199 -1.8761 1.4221
                  CHANNELS 6 Xposition Yposition Zposition Zrotation Xrotation Yrotation
                  JOINT RightFinger01
                  {
                    OFFSET 1.1472 -3.4929 2.6336
                    CHANNELS 6 Xposition Yposition Zposition Zrotation Xrotation Yrotation
                    JOINT RightFinger02
                    {
                      OFFSET 0.8229 -2.3 1.6571
                      CHANNELS 6 Xposition Yposition Zposition Zrotation Xrotation Yrotation
                      End Site
                      {
                        OFFSET 0.5822 -1.6914 1.1582
                      }
                    }
                  }
                }
              }
            }
          }
        }
      }
    }
  }
  JOINT RightHip
  {
    OFFSET -9.412 3.9771 -0.7758
    CHANNELS 6 Xposition Yposition Zposition Zrotation Xrotation Yrotation
    JOINT RightKnee
    {
      OFFSET -0.7531 -40.938 0
      CHANNELS 6 Xposition Yposition Zposition Zrotation Xrotation Yrotation
      JOINT RightAnkle
      {
        OFFSET 0 -40.1986 0
        CHANNELS 6 Xposition Yposition Zposition Zrotation Xrotation Yrotation
        JOINT RightToe
        {
          OFFSET 0 -4.4182 9.239
          CHANNELS 6 Xposition Yposition Zposition Zrotation Xrotation Yrotation
          End Site
          {
            OFFSET 0 0 6.1981
          }
        }
      }
    }
  }
  JOINT LeftHip
  {
    OFFSET 9.4119 3.9773 -0.7758
    CHANNELS 6 Xposition Yposition Zposition Zrotation Xrotation Yrotation
    JOINT LeftKnee
    {
      OFFSET 0.7532 -40.9383 0
      CHANNELS 6 Xposition Yposition Zposition Zrotation Xrotation Yrotation
      JOINT LeftAnkle
      {
        OFFSET 0 -40.1986 0
        CHANNELS 6 Xposition Yposition Zposition Zrotation Xrotation Yrotation
        JOINT LeftToe
        {
          OFFSET 0 -4.4182 9.239
          CHANNELS 6 Xposition Yposition Zposition Zrotation Xrotation Yrotation
          End Site
          {
            OFFSET 0 0 6.1981
          }
        }
      }
    }
  }
}
MOTION
Frames:	4
Frame Time:	0.0333333
5.72205e-005 65.662 3.42586 0 0 -0 0 8.7983 -4.7612 0 0 -0 0 8.0291 0.4195 0 0 -0 0 9.9351 -2.2114 0 0 -0 0 22.3885 -0.4656 0 0 -0 -0.0001 12.643 3.4389 0 0 -0 2.2603 21.606 7.4023 0 0 -12.5014 13.5163 -1.1332 -5.0146 88.1196 14.2451 10.6914 -0.0995 -28.05 -0.2431 -0.00160068 -0.00239207 0.000740045 0.0679 -23.3996 -0.1402 -8.4365e-005 7.00714e-005 -9.52055e-007 0.7932 -9.069 2.5189 9.93923e-017 -1.98785e-016 -1.59028e-015 -0.8272 -3.3923 0.5977 9.93923e-017 -5.96354e-016 -1.59028e-015 -0.5649 -2.3158 0.4082 -9.93923e-017 -5.96354e-016 -1.59028e-015 0.9159 -9.2044 0.2193 9.93923e-017 -1.98785e-016 -1.59028e-015 0.0117 -4.1944 -0.0248 -0.0128176 0.00232552 8.52707e-005 0.0071 -2.3249 -0.0142 9.93923e-017 5.96354e-016 -0 0.6113 -8.7231 -2.0637 9.93923e-017 -1.98785e-016 -1.59028e-015 -0.1927 -3.8059 -0.2383 -0.0160551 0.00299681 0.000857156 -0.1091 -2.1688 -0.1362 -2.48481e-016 0 3.18055e-015 -0.6151 -8.0947 -3.5641 9.93923e-017 -1.98785e-016 -1.59028e-015 -0.4882 -2.341 -0.6462 -0.0125865 0.0031206 0.00282719 -0.3575 -1.7167 -0.4742 0 1.98785e-016 -0 -1.42 -1.8761 1.4223 9.93923e-017 -1.98785e-016 -1.59028e-015 -1.1471 -3.4929 2.6334 9.93923e-017 -5.96354e-016 -1.59028e-015 -0.823 -2.3 1.6571 -9.93923e-017 -5.96354e-016 -1.59028e-015 -2.2603 21.606 7.4023 -0.865644 0.16582 7.03859 -13.5187 -1.1334 -5.0155 -88.0329 10.2057 -10.5567 0.0994 -28.0499 -0.2431 0.0015593 -0.00248883 -0.000788628 -0.0679 -23.3996 -0.1402 7.87605e-005 4.10553e-005 1.24965e-005 -0.7932 -9.0691 2.5189 -3.97569e-016 -7.95139e-016 3.18055e-015 0.8272 -3.3923 0.5977 -1.98785e-016 -3.97569e-016 3.18055e-015 0.565 -2.3158 0.4082 -1.98785e-016 0 3.18055e-015 -0.916 -9.2044 0.2193 -3.97569e-016 -7.95139e-016 3.18055e-015 -0.0117 -4.1944 -0.0248 0.0129473 0.00231697 -8.70038e-005 -0.0071 -2.3249 -0.0142 9.93923e-017 -7.95139e-016 1.59028e-015 -0.6113 -8.7231 -2.0637 -3.97569e-016 -7.95139e-016 3.18055e-015 0.1927 -3.8059 -0.2383 0.0163314 0.00303369 -0.000872333 0.1091 -2.1688 -0.1362 3.97569e-016 7.95139e-016 -3.18055e-015 0.6151 -8.0947 -3.564 -3.97569e-016 -7.95139e-016 3.18055e-015 0.4882 -2.341 -0.6462 0.0145763 0.00367772 -0.00326275 0.3574 -1.7166 -0.4742 9.93923e-017 -3.97569e-016 -0 1.4199 -1.8761 1.4221 -3.97569e-016 -7.95139e-016 3.18055e-015 1.1472 -3.4929 2.6336 -1.98785e-016 -3.97569e-016 3.18055e-015 0.8229 -2.3 1.6571 -1.98785e-016 0 3.18055e-015 -9.412 3.9771 -0.7758 3.42482 1.32465 -0.0626183 -0.7531 -40.938 0 0.000117508 0.717283 0.000978199 0 -40.1986 0 -3.4257 -2.04197 -0.0604716 8.88178e-016 -4.4182 9.239 6.47761e-025 0 -0 9.4119 3.9773 -0.7758 -3.42483 1.34017 0.0627307 0.7532 -40.9383 -2.22045e-016 -0.000193936 0.682302 -0.0013703 -8.88179e-016 -40.1986 0 3.42574 -2.02253 0.0595886 -8.88178e-016 -4.4182 9.239 -8.45714e-024 0 -7.40531e-025 
-6.94845 16.0063 37.1245 180 75.0041 -180 -8.88179e-016 8.7983 -4.7612 -0.100354 -5.75319 -0.431084 0 8.0291 0.4195 -0.246346 -11.5055 -0.879059 0 9.9351 -2.2114 -0.246348 -11.5055 -0.879062 0 22.3885 -0.4656 -2.47857e-006 -31.0028 -4.11973e-006 -0.0001 12.643 3.4389 -7.84141e-007 -15.0017 -2.47842e-007 2.2603 21.606 7.4023 -5.91041 -8.01684 -37.7506 13.5163 -1.1332 -5.0146 95.1436 -5.92786 9.64918 -0.0995 -28.05 -0.2431 45.4661 -43.6908 27.1067 0.0679 -23.3996 -0.1402 9.20562 -0.550925 8.2016 0.7932 -9.069 2.5189 3.18055e-015 -7.95139e-016 2.68359e-015 -0.8272 -3.3923 0.5977 6.06912e-032 -7.95139e-016 4.37326e-015 -0.5649 -2.3158 0.4082 -0 0 5.76476e-015 0.9159 -9.2044 0.2193 3.18055e-015 -7.95139e-016 2.68359e-015 0.0117 -4.1944 -0.0248 -0.0128 0.00232626 9.67933e-005 0.0071 -2.3249 -0.0142 -3.18055e-015 0 3.27995e-015 0.6113 -8.7231 -2.0637 3.18055e-015 -7.95139e-016 2.68359e-015 -0.1927 -3.8059 -0.2383 -0.0160215 0.00299176 0.000865895 -0.1091 -2.1688 -0.1362 6.36111e-015 0 4.96962e-016 -0.6151 -8.0947 -3.5641 3.18055e-015 -7.95139e-016 2.68359e-015 -0.4882 -2.341 -0.6462 -0.0125428 0.00310717 0.00281426 -0.3575 -1.7167 -0.4742 -4.70198e-006 4.16147e-006 9.7653e-006 -1.42 -1.8761 1.4223 3.18055e-015 -7.95139e-016 2.68359e-015 -1.1471 -3.4929 2.6334 6.06912e-032 -7.95139e-016 4.37326e-015 -0.823 -2.3 1.6571 -0 0 5.76476e-015 -2.2603 21.606 7.4023 5.6385 -8.28469 31.6127 -13.5187 -1.1334 -5.0155 -95.8669 -11.0894 -10.5139 0.0994 -28.0499 -0.2431 -39.0595 -45.8482 -23.9334 -0.0679 -23.3996 -0.1402 -9.42947 1.06536 -8.04932 -0.7932 -9.0691 2.5189 -1.65521e-032 -2.38542e-015 -3.97569e-016 0.8272 -3.3923 0.5977 1.10348e-032 -1.59028e-015 3.97569e-016 0.565 -2.3158 0.4082 -4.41391e-032 -1.59028e-015 -1.59028e-015 -0.916 -9.2044 0.2193 -1.65521e-032 -2.38542e-015 -3.97569e-016 -0.0117 -4.1944 -0.0248 0.013012 0.00232548 -8.69739e-005 -0.0071 -2.3249 -0.0142 3.18055e-015 0 2.38542e-015 -0.6113 -8.7231 -2.0637 -1.65521e-032 -2.38542e-015 -3.97569e-016 0.1927 -3.8059 -0.2383 0.0163029 0.00303595 -0.000876509 0.1091 -2.1688 -0.1362 -9.54166e-015 7.95139e-016 9.93923e-016 0.6151 -8.0947 -3.564 -1.65521e-032 -2.38542e-015 -3.97569e-016 0.4882 -2.341 -0.6462 0.0146433 0.00369337 -0.0032719 0.3574 -1.7166 -0.4742 -3.18055e-015 0 9.93923e-016 1.4199 -1.8761 1.4221 -1.65521e-032 -2.38542e-015 -3.97569e-016 1.1472 -3.4929 2.6336 1.10348e-032 -1.59028e-015 3.97569e-016 0.8229 -2.3 1.6571 -4.41391e-032 -1.59028e-015 -1.59028e-015 -9.412 3.9771 -0.7758 -106.824 -40.0906 -109.392 -0.7531 -40.938 0 -79.2438 81.8228 88.5329 7.10543e-015 -40.1986 0 -27.1889 31.1689 56.414 0 -4.4182 9.239 -9.75587e-007 -1.08484e-005 1.22699e-007 9.4119 3.9773 -0.7758 106.85 -40.0996 109.382 0.7532 -40.9383 0 79.2001 81.8636 -88.4987 0 -40.1986 0 27.1824 31.1972 -56.4345 0 -4.4182 9.239 -1.47274e-007 -9.54166e-015 -1.54283e-007 
-6.94866 15.6473 37.1517 180 76.1104 -180 0 8.7983 -4.7612 -0.103503 -5.32509 -0.430041 8.88179e-016 8.0291 0.4195 -0.248972 -10.6492 -0.875505 -8.88178e-016 9.9351 -2.2114 -0.248973 -10.6493 -0.875508 0 22.3885 -0.4656 -3.64162e-006 -31.6131 -4.9661e-006 -0.0001 12.643 3.4389 7.12925e-007 -15.4459 2.81228e-007 2.2603 21.606 7.4023 -5.30833 -8.70526 -37.9071 13.5163 -1.1332 -5.0146 95.1437 -5.92782 9.64917 -0.0995 -28.05 -0.2431 44.9021 -43.356 26.7242 0.0679 -23.3996 -0.1402 9.8036 -0.612923 8.60743 0.7932 -9.069 2.5189 0 0 -3.77691e-015 -0.8272 -3.3923 0.5977 -3.18055e-015 7.95139e-016 -1.98785e-015 -0.5649 -2.3158 0.4082 -3.18055e-015 7.95139e-016 -2.18663e-015 0.9159 -9.2044 0.2193 0 0 -3.77691e-015 0.0117 -4.1944 -0.0248 -0.0127753 0.00231749 9.00418e-005 0.0071 -2.3249 -0.0142 -6.36111e-015 1.59028e-015 3.37934e-015 0.6113 -8.7231 -2.0637 0 0 -3.77691e-015 -0.1927 -3.8059 -0.2383 -0.0160604 0.00299573 0.000853245 -0.1091 -2.1688 -0.1362 6.64155e-031 -3.57812e-015 1.0635e-014 -0.6151 -8.0947 -3.5641 0 0 -3.77691e-015 -0.4882 -2.341 -0.6462 -0.0125706 0.00312031 0.00281357 -0.3575 -1.7167 -0.4742 6.36111e-015 1.19271e-015 3.97569e-016 -1.42 -1.8761 1.4223 0 0 -3.77691e-015 -1.1471 -3.4929 2.6334 -3.18055e-015 7.95139e-016 -1.98785e-015 -0.823 -2.3 1.6571 -3.18055e-015 7.95139e-016 -2.18663e-015 -2.2603 21.606 7.4023 5.00354 -9.01662 31.8298 -13.5187 -1.1334 -5.0155 -95.7939 -10.8406 -10.5147 0.0994 -28.0499 -0.2431 -38.5277 -45.4817 -23.547 -0.0679 -23.3996 -0.1402 -9.97628 1.04635 -8.46859 -0.7932 -9.0691 2.5189 -8.27607e-033 -7.95139e-016 -5.96354e-016 0.8272 -3.3923 0.5977 -3.18055e-015 7.95139e-016 -0 0.565 -2.3158 0.4082 0 7.95139e-016 -0 -0.916 -9.2044 0.2193 -8.27607e-033 -7.95139e-016 -5.96354e-016 -0.0117 -4.1944 -0.0248 0.0129911 0.00233402 -8.92734e-005 -0.0071 -2.3249 -0.0142 7.82619e-006 -8.22339e-006 1.03883e-005 -0.6113 -8.7231 -2.0637 -8.27607e-033 -7.95139e-016 -5.96354e-016 0.1927 -3.8059 -0.2383 0.0162923 0.00301701 -0.000865728 0.1091 -2.1688 -0.1362 -1.10348e-032 -7.95139e-016 -7.95139e-016 0.6151 -8.0947 -3.564 -8.27607e-033 -7.95139e-016 -5.96354e-016 0.4882 -2.341 -0.6462 0.0146015 0.0036793 -0.00325939 0.3574 -1.7166 -0.4742 -3.18055e-015 1.27222e-014 -3.18055e-015 1.4199 -1.8761 1.4221 -8.27607e-033 -7.95139e-016 -5.96354e-016 1.1472 -3.4929 2.6336 -3.18055e-015 7.95139e-016 -0 0.8229 -2.3 1.6571 0 7.95139e-016 -0 -9.412 3.9771 -0.7758 -105.725 -39.1298 -108.64 -0.7531 -40.938 -7.10543e-015 -78.6698 81.8068 87.9624 0 -40.1986 0 -28.6802 30.5886 57.6066 0 -4.4182 9.239 4.89494e-008 9.61273e-006 1.18367e-007 9.4119 3.9773 -0.7758 105.751 -39.1762 108.603 0.7532 -40.9383 0 78.6219 81.8476 -87.9249 0 -40.1986 -3.55271e-015 28.624 30.6257 -57.5895 7.10543e-015 -4.4182 9.239 -2.36182e-006 1.69722e-005 -5.94256e-007 
-6.94885 15.2893 37.1813 180 77.2185 -180 0 8.7983 -4.7612 -0.106652 -4.89137 -0.428824 8.88179e-016 8.0291 0.4195 -0.251585 -9.78177 -0.87162 0 9.9351 -2.2114 -0.251586 -9.78182 -0.871622 0 22.3885 -0.4656 -1.56624e-006 -32.2237 -1.97951e-006 -0.0001 12.643 3.4389 2.7851e-007 -15.8902 1.41873e-007 2.2603 21.606 7.4023 -4.70634 -9.39598 -38.0567 13.5163 -1.1332 -5.0146 95.1437 -5.9278 9.64918 -0.0995 -28.05 -0.2431 44.3441 -43.0183 26.3484 0.0679 -23.3996 -0.1402 10.4025 -0.670739 9.01411 0.7932 -9.069 2.5189 3.18055e-015 1.19271e-015 9.93923e-016 -0.8272 -3.3923 0.5977 3.18055e-015 1.19271e-015 7.95139e-016 -0.5649 -2.3158 0.4082 3.18055e-015 1.98785e-015 5.96354e-016 0.9159 -9.2044 0.2193 3.18055e-015 1.19271e-015 9.93923e-016 0.0117 -4.1944 -0.0248 -0.0128677 0.00234089 8.95133e-005 0.0071 -2.3249 -0.0142 -3.18055e-015 1.11319e-014 1.09332e-015 0.6113 -8.7231 -2.0637 3.18055e-015 1.19271e-015 9.93923e-016 -0.1927 -3.8059 -0.2383 -0.0160317 0.00298575 0.000856229 -0.1091 -2.1688 -0.1362 0 0 -1.19271e-015 -0.6151 -8.0947 -3.5641 3.18055e-015 1.19271e-015 9.93923e-016 -0.4882 -2.341 -0.6462 -0.0125655 0.00311679 0.0028236 -0.3575 -1.7167 -0.4742 -0 0 1.49089e-015 -1.42 -1.8761 1.4223 3.18055e-015 1.19271e-015 9.93923e-016 -1.1471 -3.4929 2.6334 3.18055e-015 1.19271e-015 7.95139e-016 -0.823 -2.3 1.6571 3.18055e-015 1.98785e-015 5.96354e-016 -2.2603 21.606 7.4023 4.36928 -9.7518 32.0393 -13.5187 -1.1334 -5.0155 -95.7233 -10.5905 -10.5163 0.0994 -28.0499 -0.2431 -38.0006 -45.1131 -23.1684 -0.0679 -23.3996 -0.1402 -10.5235 1.03137 -8.88825 -0.7932 -9.0691 2.5189 1.37935e-032 7.95139e-016 -9.93923e-016 0.8272 -3.3923 0.5977 -1.10348e-032 7.95139e-016 7.95139e-016 0.565 -2.3158 0.4082 3.18055e-015 7.95139e-016 1.19271e-015 -0.916 -9.2044 0.2193 1.37935e-032 7.95139e-016 -9.93923e-016 -0.0117 -4.1944 -0.0248 0.0129237 0.0023232 -9.18458e-005 -0.0071 -2.3249 -0.0142 -2.21062e-006 -7.13226e-006 9.46192e-006 -0.6113 -8.7231 -2.0637 1.37935e-032 7.95139e-016 -9.93923e-016 0.1927 -3.8059 -0.2383 0.0163099 0.00304234 -0.000877461 0.1091 -2.1688 -0.1362 3.18055e-015 0 7.95139e-016 0.6151 -8.0947 -3.564 1.37935e-032 7.95139e-016 -9.93923e-016 0.4882 -2.341 -0.6462 0.0146576 0.00370881 -0.0032847 0.3574 -1.7166 -0.4742 -3.18055e-015 -7.95139e-016 -2.98177e-015 1.4199 -1.8761 1.4221 1.37935e-032 7.95139e-016 -9.93923e-016 1.1472 -3.4929 2.6336 -1.10348e-032 7.95139e-016 7.95139e-016 0.8229 -2.3 1.6571 3.18055e-015 7.95139e-016 1.19271e-015 -9.412 3.9771 -0.7758 -104.659 -38.1593 -107.923 -0.7531 -40.938 0 -78.108 81.7904 87.4049 7.10543e-015 -40.1986 -7.10543e-015 -30.1507 29.9806 58.7756 0 -4.4182 9.239 -6.06638e-007 2.46588e-006 5.90539e-007 9.4119 3.9773 -0.7758 104.684 -38.2427 107.858 0.7532 -40.9383 0 78.0561 81.8311 -87.3636 3.55271e-015 -40.1986 7.10543e-015 30.0455 30.0284 -58.722 0 -4.4182 9.239 1.47723e-007 5.81569e-009 1.53699e-007 
